<svg xmlns="http://www.w3.org/2000/svg" width="1200" height="630" viewBox="0 0 1200 630">
<defs>
  <linearGradient id="bg" x1="0" x2="1" y1="0" y2="1"><stop offset="0" stop-color="#15100d"/><stop offset="1" stop-color="#2b1d13"/></linearGradient>
  <radialGradient id="halo" cx="80%" cy="18%" r="55%"><stop offset="0" stop-color="#b8792a" stop-opacity=".36"/><stop offset="1" stop-color="#b8792a" stop-opacity="0"/></radialGradient>
</defs>
<rect width="1200" height="630" fill="url(#bg)"/>
<rect width="1200" height="630" fill="url(#halo)"/>
<rect x="80" y="70" width="1040" height="490" rx="24" fill="rgba(255,255,255,.055)" stroke="rgba(255,255,255,.12)"/>
<rect x="120" y="110" width="74" height="74" rx="20" fill="rgba(244,209,154,.16)" stroke="rgba(244,209,154,.24)"/>
<path d="M145 128h31v6h-25v31a9 9 0 1 1-6-8.5V128Zm30 14v6h-18v-6h18Zm0 13v6h-18v-6h18Z" fill="#f4d19a"/>
<text x="214" y="160" font-family="Inter,Arial,sans-serif" font-size="38" font-weight="900" fill="#fff">Rightnote</text>
<text x="120" y="270" font-family="Inter,Arial,sans-serif" font-size="56" font-weight="900" letter-spacing="-2" fill="#fff">Building the infrastructure</text>
<text x="120" y="336" font-family="Inter,Arial,sans-serif" font-size="56" font-weight="900" letter-spacing="-2" fill="#fff">of creative markets.</text>
<text x="120" y="400" font-family="Inter,Arial,sans-serif" font-size="22" fill="rgba(255,255,255,.72)">Copyright · Collective management · Music business · ICC</text>
<line x1="120" y1="440" x2="1080" y2="440" stroke="rgba(255,255,255,.14)"/>
<text x="120" y="490" font-family="Inter,Arial,sans-serif" font-size="18" fill="rgba(255,255,255,.55)">rightnote.vercel.app</text>
</svg>
